<svg width="139" height="107" viewBox="0 0 139 107" fill="none" xmlns="http://www.w3.org/2000/svg">
<path d="M28.608 106.672C24.192 106.672 20.224 105.904 16.704 104.368C13.248 102.768 10.528 100.592 8.544 97.84C6.56 95.024 5.536 91.792 5.472 88.144H14.784C15.104 91.28 16.384 93.936 18.624 96.112C20.928 98.224 24.256 99.28 28.608 99.28C32.768 99.28 36.032 98.256 38.4 96.208C40.832 94.096 42.048 91.408 42.048 88.144C42.048 85.584 41.344 83.504 39.936 81.904C38.528 80.304 36.768 79.088 34.656 78.256C32.544 77.424 29.696 76.528 26.112 75.568C21.696 74.416 18.144 73.264 15.456 72.112C12.832 70.96 10.56 69.168 8.64 66.736C6.784 64.24 5.856 60.912 5.856 56.752C5.856 53.104 6.784 49.872 8.64 47.056C10.496 44.24 13.088 42.064 16.416 40.528C19.808 38.992 23.68 38.224 28.032 38.224C34.304 38.224 39.424 39.792 43.392 42.928C47.424 46.064 49.696 50.224 50.208 55.408H40.608C40.288 52.848 38.944 50.608 36.576 48.688C34.208 46.704 31.072 45.712 27.168 45.712C23.52 45.712 20.544 46.672 18.24 48.592C15.936 50.448 14.784 53.072 14.784 56.464C14.784 58.896 15.456 60.88 16.8 62.416C18.208 63.952 19.904 65.136 21.888 65.968C23.936 66.736 26.784 67.632 30.432 68.656C34.848 69.872 38.4 71.088 41.088 72.304C43.776 73.456 46.08 75.28 48 77.776C49.92 80.208 50.88 83.536 50.88 87.76C50.88 91.024 50.016 94.096 48.288 96.976C46.56 99.856 44 102.192 40.608 103.984C37.216 105.776 33.216 106.672 28.608 106.672Z" fill="black"/>
<path d="M74.764 41.272L62.884 70.288H59.5L63.388 60.784L55.432 41.272H59.068L65.26 57.256L71.38 41.272H74.764ZM87.6692 40.912C90.0692 40.912 92.0132 41.644 93.5012 43.108C94.9892 44.548 95.7332 46.636 95.7332 49.372V61H92.4932V49.84C92.4932 47.872 92.0012 46.372 91.0172 45.34C90.0332 44.284 88.6892 43.756 86.9852 43.756C85.2572 43.756 83.8772 44.296 82.8452 45.376C81.8372 46.456 81.3332 48.028 81.3332 50.092V61H78.0572V41.272H81.3332V44.08C81.9812 43.072 82.8572 42.292 83.9612 41.74C85.0892 41.188 86.3252 40.912 87.6692 40.912ZM99.8605 51.1C99.8605 49.06 100.269 47.284 101.085 45.772C101.901 44.236 103.029 43.048 104.469 42.208C105.933 41.368 107.601 40.948 109.473 40.948C111.897 40.948 113.889 41.536 115.449 42.712C117.033 43.888 118.077 45.52 118.581 47.608H115.053C114.717 46.408 114.057 45.46 113.073 44.764C112.113 44.068 110.913 43.72 109.473 43.72C107.601 43.72 106.089 44.368 104.937 45.664C103.785 46.936 103.209 48.748 103.209 51.1C103.209 53.476 103.785 55.312 104.937 56.608C106.089 57.904 107.601 58.552 109.473 58.552C110.913 58.552 112.113 58.216 113.073 57.544C114.033 56.872 114.693 55.912 115.053 54.664H118.581C118.053 56.68 116.997 58.3 115.413 59.524C113.829 60.724 111.849 61.324 109.473 61.324C107.601 61.324 105.933 60.904 104.469 60.064C103.029 59.224 101.901 58.036 101.085 56.5C100.269 54.964 99.8605 53.164 99.8605 51.1Z" fill="black"/>
<path d="M60.376 83.696C60.952 82.6933 61.8053 81.8613 62.936 81.2C64.088 80.5173 65.4213 80.176 66.936 80.176C68.4933 80.176 69.9013 80.5493 71.16 81.296C72.44 82.0427 73.4427 83.0987 74.168 84.464C74.8933 85.808 75.256 87.376 75.256 89.168C75.256 90.9387 74.8933 92.5173 74.168 93.904C73.4427 95.2907 72.44 96.368 71.16 97.136C69.9013 97.904 68.4933 98.288 66.936 98.288C65.4427 98.288 64.12 97.9573 62.968 97.296C61.8373 96.6133 60.9733 95.7707 60.376 94.768V106.32H57.464V80.464H60.376V83.696ZM72.28 89.168C72.28 87.8453 72.0133 86.6933 71.48 85.712C70.9467 84.7307 70.2213 83.984 69.304 83.472C68.408 82.96 67.416 82.704 66.328 82.704C65.2613 82.704 64.2693 82.9707 63.352 83.504C62.456 84.016 61.7307 84.7733 61.176 85.776C60.6427 86.7573 60.376 87.8987 60.376 89.2C60.376 90.5227 60.6427 91.6853 61.176 92.688C61.7307 93.6693 62.456 94.4267 63.352 94.96C64.2693 95.472 65.2613 95.728 66.328 95.728C67.416 95.728 68.408 95.472 69.304 94.96C70.2213 94.4267 70.9467 93.6693 71.48 92.688C72.0133 91.6853 72.28 90.512 72.28 89.168ZM95.089 88.56C95.089 89.1147 95.057 89.7013 94.993 90.32H80.977C81.0837 92.048 81.6703 93.4027 82.737 94.384C83.825 95.344 85.137 95.824 86.673 95.824C87.9317 95.824 88.977 95.536 89.809 94.96C90.6623 94.3627 91.2597 93.5733 91.601 92.592H94.737C94.2677 94.2773 93.329 95.6533 91.921 96.72C90.513 97.7653 88.7637 98.288 86.673 98.288C85.009 98.288 83.5157 97.9147 82.193 97.168C80.8917 96.4213 79.8677 95.3653 79.121 94C78.3743 92.6133 78.001 91.0133 78.001 89.2C78.001 87.3867 78.3637 85.7973 79.089 84.432C79.8143 83.0667 80.8277 82.0213 82.129 81.296C83.4517 80.5493 84.9663 80.176 86.673 80.176C88.337 80.176 89.809 80.5387 91.089 81.264C92.369 81.9893 93.3503 82.992 94.033 84.272C94.737 85.5307 95.089 86.96 95.089 88.56ZM92.081 87.952C92.081 86.8427 91.8357 85.8933 91.345 85.104C90.8543 84.2933 90.1823 83.6853 89.329 83.28C88.497 82.8533 87.569 82.64 86.545 82.64C85.073 82.64 83.8143 83.1093 82.769 84.048C81.745 84.9867 81.1583 86.288 81.009 87.952H92.081ZM107.477 80.144C109.61 80.144 111.338 80.7947 112.661 82.096C113.983 83.376 114.645 85.232 114.645 87.664V98H111.765V88.08C111.765 86.3307 111.327 84.9973 110.453 84.08C109.578 83.1413 108.383 82.672 106.869 82.672C105.333 82.672 104.106 83.152 103.189 84.112C102.293 85.072 101.845 86.4693 101.845 88.304V98H98.9328V80.464H101.845V82.96C102.421 82.064 103.199 81.3707 104.181 80.88C105.183 80.3893 106.282 80.144 107.477 80.144ZM118.314 89.168C118.314 87.376 118.676 85.808 119.402 84.464C120.127 83.0987 121.119 82.0427 122.378 81.296C123.658 80.5493 125.087 80.176 126.666 80.176C128.031 80.176 129.3 80.496 130.474 81.136C131.647 81.7547 132.543 82.576 133.162 83.6V74.32H136.106V98H133.162V94.704C132.586 95.7493 131.732 96.6133 130.602 97.296C129.471 97.9573 128.148 98.288 126.634 98.288C125.076 98.288 123.658 97.904 122.378 97.136C121.119 96.368 120.127 95.2907 119.402 93.904C118.676 92.5173 118.314 90.9387 118.314 89.168ZM133.162 89.2C133.162 87.8773 132.895 86.7253 132.362 85.744C131.828 84.7627 131.103 84.016 130.186 83.504C129.29 82.9707 128.298 82.704 127.21 82.704C126.122 82.704 125.13 82.96 124.234 83.472C123.338 83.984 122.623 84.7307 122.09 85.712C121.556 86.6933 121.29 87.8453 121.29 89.168C121.29 90.512 121.556 91.6853 122.09 92.688C122.623 93.6693 123.338 94.4267 124.234 94.96C125.13 95.472 126.122 95.728 127.21 95.728C128.298 95.728 129.29 95.472 130.186 94.96C131.103 94.4267 131.828 93.6693 132.362 92.688C132.895 91.6853 133.162 90.5227 133.162 89.2Z" fill="black"/>
<path d="M28.5 39L28.5 106.5" stroke="#F0F2F5"/>
</svg>
